<mxfile host="Electron" agent="Mozilla/5.0 (Windows NT 10.0; Win64; x64) AppleWebKit/537.36 (KHTML, like Gecko) draw.io/26.0.16 Chrome/132.0.6834.196 Electron/34.2.0 Safari/537.36" version="26.0.16">
  <diagram name="Page-1" id="fF-hLGE5bn9PlgKG-VpF">
    <mxGraphModel dx="1418" dy="916" grid="1" gridSize="10" guides="1" tooltips="1" connect="1" arrows="1" fold="1" page="1" pageScale="1" pageWidth="850" pageHeight="1100" math="0" shadow="0">
      <root>
        <mxCell id="0" />
        <mxCell id="1" parent="0" />
        <mxCell id="dhiBUMAR5Jumkya6LAop-12" style="edgeStyle=none;rounded=0;orthogonalLoop=1;jettySize=auto;html=1;exitX=0.5;exitY=0.5;exitDx=0;exitDy=0;exitPerimeter=0;startArrow=none;startFill=0;dashed=1;endArrow=none;" parent="1" source="dhiBUMAR5Jumkya6LAop-2" edge="1">
          <mxGeometry relative="1" as="geometry">
            <mxPoint x="120" y="1080" as="targetPoint" />
            <Array as="points">
              <mxPoint x="120" y="180" />
              <mxPoint x="120" y="640" />
            </Array>
          </mxGeometry>
        </mxCell>
        <mxCell id="dhiBUMAR5Jumkya6LAop-2" value="Student" style="shape=umlActor;verticalLabelPosition=bottom;verticalAlign=top;html=1;" parent="1" vertex="1">
          <mxGeometry x="110" y="30" width="30" height="60" as="geometry" />
        </mxCell>
        <mxCell id="dhiBUMAR5Jumkya6LAop-15" style="edgeStyle=none;rounded=0;orthogonalLoop=1;jettySize=auto;html=1;exitX=0.5;exitY=1;exitDx=0;exitDy=0;endArrow=none;startFill=0;dashed=1;" parent="1" source="dhiBUMAR5Jumkya6LAop-13" edge="1">
          <mxGeometry relative="1" as="geometry">
            <mxPoint x="315" y="160" as="targetPoint" />
          </mxGeometry>
        </mxCell>
        <mxCell id="dhiBUMAR5Jumkya6LAop-13" value="Library System" style="html=1;whiteSpace=wrap;" parent="1" vertex="1">
          <mxGeometry x="260" y="30" width="110" height="50" as="geometry" />
        </mxCell>
        <mxCell id="W78g9E1Q4o9CU29gc3kc-19" style="edgeStyle=none;rounded=0;orthogonalLoop=1;jettySize=auto;html=1;exitX=0.75;exitY=1;exitDx=0;exitDy=0;dashed=1;endArrow=none;startFill=0;" parent="1" source="dhiBUMAR5Jumkya6LAop-14" target="W78g9E1Q4o9CU29gc3kc-20" edge="1">
          <mxGeometry relative="1" as="geometry">
            <mxPoint x="720" y="400" as="targetPoint" />
          </mxGeometry>
        </mxCell>
        <mxCell id="dhiBUMAR5Jumkya6LAop-14" value="Librarian" style="html=1;whiteSpace=wrap;" parent="1" vertex="1">
          <mxGeometry x="640" y="30" width="110" height="50" as="geometry" />
        </mxCell>
        <mxCell id="dhiBUMAR5Jumkya6LAop-16" value="" style="endArrow=classicThin;endFill=1;endSize=12;html=1;rounded=0;" parent="1" edge="1">
          <mxGeometry width="160" relative="1" as="geometry">
            <mxPoint x="120" y="160" as="sourcePoint" />
            <mxPoint x="300" y="160" as="targetPoint" />
          </mxGeometry>
        </mxCell>
        <mxCell id="dhiBUMAR5Jumkya6LAop-17" value="&lt;span style=&quot;font-weight: normal;&quot;&gt;searches for a book&lt;/span&gt;" style="text;align=center;fontStyle=1;verticalAlign=middle;spacingLeft=3;spacingRight=3;strokeColor=none;rotatable=0;points=[[0,0.5],[1,0.5]];portConstraint=eastwest;html=1;" parent="1" vertex="1">
          <mxGeometry x="170" y="130" width="80" height="26" as="geometry" />
        </mxCell>
        <mxCell id="W78g9E1Q4o9CU29gc3kc-9" style="edgeStyle=none;rounded=0;orthogonalLoop=1;jettySize=auto;html=1;exitX=0.5;exitY=1;exitDx=0;exitDy=0;endArrow=none;startFill=0;dashed=1;" parent="1" source="W78g9E1Q4o9CU29gc3kc-3" edge="1">
          <mxGeometry relative="1" as="geometry">
            <mxPoint x="515" y="170" as="targetPoint" />
          </mxGeometry>
        </mxCell>
        <mxCell id="W78g9E1Q4o9CU29gc3kc-3" value="" style="rounded=0;whiteSpace=wrap;html=1;" parent="1" vertex="1">
          <mxGeometry x="460" y="30" width="110" height="50" as="geometry" />
        </mxCell>
        <mxCell id="W78g9E1Q4o9CU29gc3kc-4" value="Library database" style="text;html=1;align=center;verticalAlign=middle;whiteSpace=wrap;rounded=0;" parent="1" vertex="1">
          <mxGeometry x="485" y="40" width="60" height="30" as="geometry" />
        </mxCell>
        <mxCell id="W78g9E1Q4o9CU29gc3kc-5" value="" style="rounded=0;whiteSpace=wrap;html=1;" parent="1" vertex="1">
          <mxGeometry x="305" y="130" width="20" height="930" as="geometry" />
        </mxCell>
        <mxCell id="W78g9E1Q4o9CU29gc3kc-21" style="edgeStyle=none;rounded=0;orthogonalLoop=1;jettySize=auto;html=1;exitX=0.5;exitY=1;exitDx=0;exitDy=0;dashed=1;endArrow=none;startFill=0;" parent="1" source="W78g9E1Q4o9CU29gc3kc-10" edge="1" target="j_BsBxT7vEvIjkR0DyJq-15">
          <mxGeometry relative="1" as="geometry">
            <mxPoint x="522" y="620" as="targetPoint" />
          </mxGeometry>
        </mxCell>
        <mxCell id="W78g9E1Q4o9CU29gc3kc-10" value="" style="rounded=0;whiteSpace=wrap;html=1;" parent="1" vertex="1">
          <mxGeometry x="510" y="170" width="20" height="180" as="geometry" />
        </mxCell>
        <mxCell id="W78g9E1Q4o9CU29gc3kc-11" value="" style="endArrow=classic;html=1;rounded=0;exitX=1.111;exitY=0.078;exitDx=0;exitDy=0;exitPerimeter=0;entryX=-0.111;entryY=0.182;entryDx=0;entryDy=0;entryPerimeter=0;endFill=1;" parent="1" source="W78g9E1Q4o9CU29gc3kc-5" target="W78g9E1Q4o9CU29gc3kc-10" edge="1">
          <mxGeometry width="50" height="50" relative="1" as="geometry">
            <mxPoint x="390" y="430" as="sourcePoint" />
            <mxPoint x="440" y="380" as="targetPoint" />
          </mxGeometry>
        </mxCell>
        <mxCell id="W78g9E1Q4o9CU29gc3kc-13" value="" style="endArrow=classic;html=1;rounded=0;entryX=1.037;entryY=0.162;entryDx=0;entryDy=0;entryPerimeter=0;exitX=-0.074;exitY=0.627;exitDx=0;exitDy=0;exitPerimeter=0;dashed=1;" parent="1" source="W78g9E1Q4o9CU29gc3kc-10" target="W78g9E1Q4o9CU29gc3kc-5" edge="1">
          <mxGeometry width="50" height="50" relative="1" as="geometry">
            <mxPoint x="530" y="420" as="sourcePoint" />
            <mxPoint x="440" y="380" as="targetPoint" />
          </mxGeometry>
        </mxCell>
        <mxCell id="W78g9E1Q4o9CU29gc3kc-14" value="book is available" style="text;html=1;align=center;verticalAlign=middle;whiteSpace=wrap;rounded=0;" parent="1" vertex="1">
          <mxGeometry x="380" y="250" width="110" height="30" as="geometry" />
        </mxCell>
        <mxCell id="W78g9E1Q4o9CU29gc3kc-15" value="" style="endArrow=classic;html=1;rounded=0;exitX=0.037;exitY=0.226;exitDx=0;exitDy=0;exitPerimeter=0;" parent="1" source="W78g9E1Q4o9CU29gc3kc-5" edge="1">
          <mxGeometry width="50" height="50" relative="1" as="geometry">
            <mxPoint x="390" y="430" as="sourcePoint" />
            <mxPoint x="120" y="340" as="targetPoint" />
          </mxGeometry>
        </mxCell>
        <mxCell id="W78g9E1Q4o9CU29gc3kc-16" value="Book available &amp;amp; book details" style="text;html=1;align=center;verticalAlign=middle;whiteSpace=wrap;rounded=0;" parent="1" vertex="1">
          <mxGeometry x="140" y="300" width="120" height="30" as="geometry" />
        </mxCell>
        <mxCell id="W78g9E1Q4o9CU29gc3kc-17" value="" style="endArrow=classic;html=1;rounded=0;entryX=0.111;entryY=0.321;entryDx=0;entryDy=0;entryPerimeter=0;" parent="1" target="W78g9E1Q4o9CU29gc3kc-5" edge="1">
          <mxGeometry width="50" height="50" relative="1" as="geometry">
            <mxPoint x="120" y="430" as="sourcePoint" />
            <mxPoint x="440" y="380" as="targetPoint" />
          </mxGeometry>
        </mxCell>
        <mxCell id="W78g9E1Q4o9CU29gc3kc-18" value="Borrow Request" style="text;html=1;align=center;verticalAlign=middle;whiteSpace=wrap;rounded=0;" parent="1" vertex="1">
          <mxGeometry x="150" y="400" width="100" height="30" as="geometry" />
        </mxCell>
        <mxCell id="W78g9E1Q4o9CU29gc3kc-20" value="" style="rounded=0;whiteSpace=wrap;html=1;" parent="1" vertex="1">
          <mxGeometry x="710" y="470" width="20" height="130" as="geometry" />
        </mxCell>
        <mxCell id="W78g9E1Q4o9CU29gc3kc-22" value="" style="endArrow=classic;html=1;rounded=0;exitX=1.148;exitY=0.372;exitDx=0;exitDy=0;exitPerimeter=0;entryX=0;entryY=0.059;entryDx=0;entryDy=0;entryPerimeter=0;" parent="1" source="W78g9E1Q4o9CU29gc3kc-5" target="W78g9E1Q4o9CU29gc3kc-20" edge="1">
          <mxGeometry width="50" height="50" relative="1" as="geometry">
            <mxPoint x="390" y="600" as="sourcePoint" />
            <mxPoint x="440" y="550" as="targetPoint" />
          </mxGeometry>
        </mxCell>
        <mxCell id="W78g9E1Q4o9CU29gc3kc-23" value=" send the book borrow &lt;br&gt;request&amp;nbsp;" style="text;html=1;align=center;verticalAlign=middle;whiteSpace=wrap;rounded=0;" parent="1" vertex="1">
          <mxGeometry x="280" y="440" width="360" height="30" as="geometry" />
        </mxCell>
        <mxCell id="W78g9E1Q4o9CU29gc3kc-24" value="check book availability&amp;nbsp;" style="text;html=1;align=center;verticalAlign=middle;whiteSpace=wrap;rounded=0;" parent="1" vertex="1">
          <mxGeometry x="360" y="170" width="120" height="30" as="geometry" />
        </mxCell>
        <mxCell id="W78g9E1Q4o9CU29gc3kc-25" value=" Alternative" style="shape=umlFrame;whiteSpace=wrap;html=1;pointerEvents=0;width=70;height=30;" parent="1" vertex="1">
          <mxGeometry x="20" y="250" width="810" height="820" as="geometry" />
        </mxCell>
        <mxCell id="j_BsBxT7vEvIjkR0DyJq-1" value=" Alternative" style="shape=umlFrame;whiteSpace=wrap;html=1;pointerEvents=0;" vertex="1" parent="1">
          <mxGeometry x="50" y="530" width="740" height="350" as="geometry" />
        </mxCell>
        <mxCell id="j_BsBxT7vEvIjkR0DyJq-2" value="" style="endArrow=classicThin;endFill=1;endSize=12;html=1;rounded=0;entryX=1;entryY=0.5;entryDx=0;entryDy=0;dashed=1;" edge="1" parent="1">
          <mxGeometry width="160" relative="1" as="geometry">
            <mxPoint x="710" y="556" as="sourcePoint" />
            <mxPoint x="320" y="556" as="targetPoint" />
          </mxGeometry>
        </mxCell>
        <mxCell id="j_BsBxT7vEvIjkR0DyJq-3" value="&lt;span style=&quot;font-weight: normal;&quot;&gt;Approve&amp;nbsp;&lt;/span&gt; &lt;span style=&quot;font-weight: normal;&quot;&gt;Borrow&lt;/span&gt;&amp;nbsp;&lt;span style=&quot;font-weight: normal;&quot;&gt;request.&lt;/span&gt;" style="text;align=center;fontStyle=1;verticalAlign=middle;spacingLeft=3;spacingRight=3;strokeColor=none;rotatable=0;points=[[0,0.5],[1,0.5]];portConstraint=eastwest;html=1;" vertex="1" parent="1">
          <mxGeometry x="405" y="530" width="80" height="26" as="geometry" />
        </mxCell>
        <mxCell id="j_BsBxT7vEvIjkR0DyJq-4" value="" style="endArrow=classicThin;endFill=1;endSize=12;html=1;rounded=0;exitX=-0.142;exitY=0.547;exitDx=0;exitDy=0;exitPerimeter=0;" edge="1" parent="1">
          <mxGeometry width="160" relative="1" as="geometry">
            <mxPoint x="300.00000000000006" y="596" as="sourcePoint" />
            <mxPoint x="122.84" y="596.29" as="targetPoint" />
          </mxGeometry>
        </mxCell>
        <mxCell id="j_BsBxT7vEvIjkR0DyJq-5" value="&lt;span style=&quot;font-weight: normal;&quot;&gt;Notify about&amp;nbsp;&amp;nbsp;&lt;/span&gt; &lt;span style=&quot;font-weight: normal;&quot;&gt;Borrow&amp;nbsp;approval&lt;/span&gt;" style="text;align=center;fontStyle=1;verticalAlign=middle;spacingLeft=3;spacingRight=3;strokeColor=none;rotatable=0;points=[[0,0.5],[1,0.5]];portConstraint=eastwest;html=1;" vertex="1" parent="1">
          <mxGeometry x="180" y="570" width="80" height="26" as="geometry" />
        </mxCell>
        <mxCell id="j_BsBxT7vEvIjkR0DyJq-6" value="" style="endArrow=none;endFill=1;endSize=12;html=1;rounded=0;exitX=0.006;exitY=0.622;exitDx=0;exitDy=0;exitPerimeter=0;entryX=0.994;entryY=0.632;entryDx=0;entryDy=0;entryPerimeter=0;dashed=1;startFill=0;" edge="1" parent="1" source="j_BsBxT7vEvIjkR0DyJq-1" target="j_BsBxT7vEvIjkR0DyJq-1">
          <mxGeometry width="160" relative="1" as="geometry">
            <mxPoint x="320" y="460" as="sourcePoint" />
            <mxPoint x="480" y="460" as="targetPoint" />
            <Array as="points">
              <mxPoint x="420" y="750" />
            </Array>
          </mxGeometry>
        </mxCell>
        <mxCell id="j_BsBxT7vEvIjkR0DyJq-7" value=" [Else]" style="text;align=center;fontStyle=1;verticalAlign=middle;spacingLeft=3;spacingRight=3;strokeColor=none;rotatable=0;points=[[0,0.5],[1,0.5]];portConstraint=eastwest;html=1;" vertex="1" parent="1">
          <mxGeometry x="50" y="756" width="80" height="24" as="geometry" />
        </mxCell>
        <mxCell id="j_BsBxT7vEvIjkR0DyJq-8" value="" style="endArrow=classic;endFill=1;endSize=12;html=1;rounded=0;dashed=1;" edge="1" parent="1">
          <mxGeometry width="160" relative="1" as="geometry">
            <mxPoint x="700" y="790" as="sourcePoint" />
            <mxPoint x="326" y="790" as="targetPoint" />
          </mxGeometry>
        </mxCell>
        <mxCell id="j_BsBxT7vEvIjkR0DyJq-9" value="&lt;span style=&quot;font-weight: normal;&quot;&gt;reject&amp;nbsp;&lt;/span&gt;&lt;span style=&quot;font-weight: 400;&quot;&gt;Borrow&lt;/span&gt;&lt;span style=&quot;font-weight: normal;&quot;&gt;&amp;nbsp;request&lt;/span&gt;" style="text;align=center;fontStyle=1;verticalAlign=middle;spacingLeft=3;spacingRight=3;strokeColor=none;rotatable=0;points=[[0,0.5],[1,0.5]];portConstraint=eastwest;html=1;" vertex="1" parent="1">
          <mxGeometry x="390" y="762" width="80" height="26" as="geometry" />
        </mxCell>
        <mxCell id="j_BsBxT7vEvIjkR0DyJq-10" value="" style="endArrow=classicThin;endFill=1;endSize=12;html=1;rounded=0;exitX=0;exitY=0.75;exitDx=0;exitDy=0;" edge="1" parent="1" source="W78g9E1Q4o9CU29gc3kc-5">
          <mxGeometry width="160" relative="1" as="geometry">
            <mxPoint x="320" y="460" as="sourcePoint" />
            <mxPoint x="120" y="827" as="targetPoint" />
          </mxGeometry>
        </mxCell>
        <mxCell id="j_BsBxT7vEvIjkR0DyJq-11" value="&lt;span style=&quot;font-weight: normal;&quot;&gt;&lt;br&gt;notify about&amp;nbsp; &amp;nbsp;&lt;/span&gt;&lt;span style=&quot;font-weight: 400;&quot;&gt;Borrow&amp;nbsp;&lt;/span&gt;&lt;span style=&quot;font-weight: normal;&quot;&gt;rejection.&lt;br&gt;&lt;/span&gt;" style="text;align=center;fontStyle=1;verticalAlign=middle;spacingLeft=3;spacingRight=3;strokeColor=none;rotatable=0;points=[[0,0.5],[1,0.5]];portConstraint=eastwest;html=1;" vertex="1" parent="1">
          <mxGeometry x="170" y="790" width="80" height="26" as="geometry" />
        </mxCell>
        <mxCell id="j_BsBxT7vEvIjkR0DyJq-13" value=" [Book available]" style="text;align=center;fontStyle=1;verticalAlign=middle;spacingLeft=3;spacingRight=3;strokeColor=none;rotatable=0;points=[[0,0.5],[1,0.5]];portConstraint=eastwest;html=1;" vertex="1" parent="1">
          <mxGeometry x="30" y="300" width="80" height="26" as="geometry" />
        </mxCell>
        <mxCell id="j_BsBxT7vEvIjkR0DyJq-14" value=" [borrow&amp;nbsp;&lt;div&gt;books]&lt;/div&gt;" style="text;align=center;fontStyle=1;verticalAlign=middle;spacingLeft=3;spacingRight=3;strokeColor=none;rotatable=0;points=[[0,0.5],[1,0.5]];portConstraint=eastwest;html=1;" vertex="1" parent="1">
          <mxGeometry x="50" y="570" width="80" height="26" as="geometry" />
        </mxCell>
        <mxCell id="j_BsBxT7vEvIjkR0DyJq-15" value="" style="rounded=0;whiteSpace=wrap;html=1;" vertex="1" parent="1">
          <mxGeometry x="510" y="600" width="25" height="130" as="geometry" />
        </mxCell>
        <mxCell id="j_BsBxT7vEvIjkR0DyJq-17" value="&lt;span style=&quot;font-weight: 700; text-wrap-mode: nowrap;&quot;&gt;[Else]&lt;/span&gt;" style="text;html=1;align=center;verticalAlign=middle;whiteSpace=wrap;rounded=0;" vertex="1" parent="1">
          <mxGeometry x="20" y="920" width="60" height="30" as="geometry" />
        </mxCell>
        <mxCell id="j_BsBxT7vEvIjkR0DyJq-18" value="" style="endArrow=none;dashed=1;html=1;dashPattern=1 3;strokeWidth=2;rounded=0;exitX=0.001;exitY=0.796;exitDx=0;exitDy=0;exitPerimeter=0;entryX=1.002;entryY=0.798;entryDx=0;entryDy=0;entryPerimeter=0;" edge="1" parent="1" source="W78g9E1Q4o9CU29gc3kc-25" target="W78g9E1Q4o9CU29gc3kc-25">
          <mxGeometry width="50" height="50" relative="1" as="geometry">
            <mxPoint x="370" y="740" as="sourcePoint" />
            <mxPoint x="420" y="690" as="targetPoint" />
          </mxGeometry>
        </mxCell>
        <mxCell id="j_BsBxT7vEvIjkR0DyJq-19" value="" style="rounded=0;whiteSpace=wrap;html=1;" vertex="1" parent="1">
          <mxGeometry x="510" y="920" width="25" height="90" as="geometry" />
        </mxCell>
        <mxCell id="j_BsBxT7vEvIjkR0DyJq-20" value="" style="endArrow=classic;html=1;rounded=0;entryX=0;entryY=0.25;entryDx=0;entryDy=0;" edge="1" parent="1" target="j_BsBxT7vEvIjkR0DyJq-15">
          <mxGeometry width="50" height="50" relative="1" as="geometry">
            <mxPoint x="330" y="633" as="sourcePoint" />
            <mxPoint x="420" y="580" as="targetPoint" />
          </mxGeometry>
        </mxCell>
        <mxCell id="j_BsBxT7vEvIjkR0DyJq-21" value="Request book" style="text;html=1;align=center;verticalAlign=middle;whiteSpace=wrap;rounded=0;" vertex="1" parent="1">
          <mxGeometry x="360" y="590" width="100" height="30" as="geometry" />
        </mxCell>
        <mxCell id="j_BsBxT7vEvIjkR0DyJq-23" value="" style="endArrow=classic;html=1;rounded=0;dashed=1;exitX=0;exitY=0.5;exitDx=0;exitDy=0;" edge="1" parent="1" source="j_BsBxT7vEvIjkR0DyJq-15">
          <mxGeometry width="50" height="50" relative="1" as="geometry">
            <mxPoint x="500" y="660" as="sourcePoint" />
            <mxPoint x="330" y="663" as="targetPoint" />
          </mxGeometry>
        </mxCell>
        <mxCell id="j_BsBxT7vEvIjkR0DyJq-25" value=" Send book" style="text;html=1;align=center;verticalAlign=middle;whiteSpace=wrap;rounded=0;" vertex="1" parent="1">
          <mxGeometry x="405" y="635" width="60" height="30" as="geometry" />
        </mxCell>
        <mxCell id="j_BsBxT7vEvIjkR0DyJq-26" value="" style="endArrow=classic;html=1;rounded=0;exitX=-0.021;exitY=0.59;exitDx=0;exitDy=0;exitPerimeter=0;" edge="1" parent="1" source="W78g9E1Q4o9CU29gc3kc-5">
          <mxGeometry width="50" height="50" relative="1" as="geometry">
            <mxPoint x="370" y="630" as="sourcePoint" />
            <mxPoint x="120" y="679" as="targetPoint" />
          </mxGeometry>
        </mxCell>
        <mxCell id="j_BsBxT7vEvIjkR0DyJq-27" value=" Send book" style="text;html=1;align=center;verticalAlign=middle;whiteSpace=wrap;rounded=0;" vertex="1" parent="1">
          <mxGeometry x="170" y="655" width="60" height="30" as="geometry" />
        </mxCell>
        <mxCell id="j_BsBxT7vEvIjkR0DyJq-28" value="" style="rounded=0;whiteSpace=wrap;html=1;" vertex="1" parent="1">
          <mxGeometry x="700" y="770" width="20" height="40" as="geometry" />
        </mxCell>
        <mxCell id="j_BsBxT7vEvIjkR0DyJq-30" value="" style="endArrow=classic;html=1;rounded=0;entryX=0.767;entryY=0.895;entryDx=0;entryDy=0;entryPerimeter=0;dashed=1;" edge="1" parent="1" target="W78g9E1Q4o9CU29gc3kc-5">
          <mxGeometry width="50" height="50" relative="1" as="geometry">
            <mxPoint x="510" y="960" as="sourcePoint" />
            <mxPoint x="420" y="580" as="targetPoint" />
          </mxGeometry>
        </mxCell>
        <mxCell id="j_BsBxT7vEvIjkR0DyJq-31" value="book is not available" style="text;html=1;align=center;verticalAlign=middle;whiteSpace=wrap;rounded=0;" vertex="1" parent="1">
          <mxGeometry x="370" y="930" width="120" height="30" as="geometry" />
        </mxCell>
        <mxCell id="j_BsBxT7vEvIjkR0DyJq-32" value="" style="endArrow=classic;html=1;rounded=0;exitX=-0.142;exitY=0.926;exitDx=0;exitDy=0;exitPerimeter=0;" edge="1" parent="1" source="W78g9E1Q4o9CU29gc3kc-5">
          <mxGeometry width="50" height="50" relative="1" as="geometry">
            <mxPoint x="370" y="630" as="sourcePoint" />
            <mxPoint x="120" y="990" as="targetPoint" />
          </mxGeometry>
        </mxCell>
        <mxCell id="j_BsBxT7vEvIjkR0DyJq-34" value=" Book not available" style="text;html=1;align=center;verticalAlign=middle;whiteSpace=wrap;rounded=0;" vertex="1" parent="1">
          <mxGeometry x="180" y="950" width="60" height="30" as="geometry" />
        </mxCell>
        <mxCell id="j_BsBxT7vEvIjkR0DyJq-35" value="" style="endArrow=none;html=1;rounded=0;entryX=0.5;entryY=0;entryDx=0;entryDy=0;startFill=0;dashed=1;exitX=0.5;exitY=1;exitDx=0;exitDy=0;" edge="1" parent="1" source="j_BsBxT7vEvIjkR0DyJq-15" target="j_BsBxT7vEvIjkR0DyJq-19">
          <mxGeometry width="50" height="50" relative="1" as="geometry">
            <mxPoint x="523" y="750" as="sourcePoint" />
            <mxPoint x="420" y="580" as="targetPoint" />
          </mxGeometry>
        </mxCell>
        <mxCell id="j_BsBxT7vEvIjkR0DyJq-36" value="" style="endArrow=none;html=1;rounded=0;exitX=0.25;exitY=1;exitDx=0;exitDy=0;dashed=1;startFill=0;entryX=0.75;entryY=0;entryDx=0;entryDy=0;" edge="1" parent="1" source="W78g9E1Q4o9CU29gc3kc-20" target="j_BsBxT7vEvIjkR0DyJq-28">
          <mxGeometry width="50" height="50" relative="1" as="geometry">
            <mxPoint x="370" y="630" as="sourcePoint" />
            <mxPoint x="715" y="720" as="targetPoint" />
          </mxGeometry>
        </mxCell>
        <mxCell id="j_BsBxT7vEvIjkR0DyJq-37" value="" style="endArrow=none;html=1;rounded=0;exitX=0.5;exitY=1;exitDx=0;exitDy=0;startFill=0;dashed=1;" edge="1" parent="1" source="j_BsBxT7vEvIjkR0DyJq-28">
          <mxGeometry width="50" height="50" relative="1" as="geometry">
            <mxPoint x="370" y="630" as="sourcePoint" />
            <mxPoint x="710" y="1065" as="targetPoint" />
          </mxGeometry>
        </mxCell>
        <mxCell id="j_BsBxT7vEvIjkR0DyJq-38" value="" style="endArrow=none;html=1;rounded=0;startFill=0;dashed=1;" edge="1" parent="1">
          <mxGeometry width="50" height="50" relative="1" as="geometry">
            <mxPoint x="523" y="1010" as="sourcePoint" />
            <mxPoint x="523" y="1067" as="targetPoint" />
          </mxGeometry>
        </mxCell>
        <mxCell id="j_BsBxT7vEvIjkR0DyJq-40" value="" style="endArrow=classic;html=1;rounded=0;entryX=0;entryY=0.75;entryDx=0;entryDy=0;exitX=1.062;exitY=0.611;exitDx=0;exitDy=0;exitPerimeter=0;" edge="1" parent="1" source="W78g9E1Q4o9CU29gc3kc-5" target="j_BsBxT7vEvIjkR0DyJq-15">
          <mxGeometry width="50" height="50" relative="1" as="geometry">
            <mxPoint x="370" y="630" as="sourcePoint" />
            <mxPoint x="420" y="580" as="targetPoint" />
          </mxGeometry>
        </mxCell>
        <mxCell id="j_BsBxT7vEvIjkR0DyJq-41" value=" Update book datils " style="text;html=1;align=center;verticalAlign=middle;whiteSpace=wrap;rounded=0;" vertex="1" parent="1">
          <mxGeometry x="360" y="670" width="110" height="30" as="geometry" />
        </mxCell>
        <mxCell id="j_BsBxT7vEvIjkR0DyJq-42" value="" style="endArrow=classic;html=1;rounded=0;" edge="1" parent="1">
          <mxGeometry width="50" height="50" relative="1" as="geometry">
            <mxPoint x="300" y="730" as="sourcePoint" />
            <mxPoint x="120" y="730" as="targetPoint" />
          </mxGeometry>
        </mxCell>
        <mxCell id="j_BsBxT7vEvIjkR0DyJq-43" value=" updates the book status and notifies" style="text;html=1;align=center;verticalAlign=middle;whiteSpace=wrap;rounded=0;" vertex="1" parent="1">
          <mxGeometry x="150" y="700" width="120" height="30" as="geometry" />
        </mxCell>
      </root>
    </mxGraphModel>
  </diagram>
</mxfile>
